<?xml version="1.0" encoding="UTF-8" standalone="no"?>
<!DOCTYPE svg PUBLIC "-//W3C//DTD SVG 1.1//EN" "http://www.w3.org/Graphics/SVG/1.1/DTD/svg11.dtd">
<svg width="100%" height="80px" viewBox="0 0 2260 726" version="1.1" xmlns="http://www.w3.org/2000/svg" xmlns:xlink="http://www.w3.org/1999/xlink" xml:space="preserve" xmlns:serif="http://www.serif.com/" style="fill-rule:evenodd;clip-rule:evenodd;stroke-linejoin:round;stroke-miterlimit:2;">
    <g transform="matrix(1,0,0,1,-2337.16,-4014.24)">
        <g id="Artboard1" transform="matrix(1.08883,0,0,1,-932.297,2892.27)">
            <rect x="3002.71" y="1121.97" width="2074.84" height="725.606" style="fill:none;"/>
            <g transform="matrix(1.60239,0,0,1.74474,910.44,-905.635)">
                <path d="M1504.09,1243.84C1519.93,1243.84 1624.15,1304.01 1632.07,1317.73C1639.99,1331.44 1639.99,1451.79 1632.07,1465.51C1624.15,1479.23 1519.93,1539.4 1504.09,1539.4C1488.25,1539.4 1384.02,1479.23 1376.1,1465.51C1368.18,1451.79 1368.18,1331.44 1376.1,1317.73C1384.02,1304.01 1488.25,1243.84 1504.09,1243.84Z" style="fill:rgb(188,17,66);"/>
                <path d="M1504.09,1243.84C1519.93,1243.84 1624.15,1304.01 1632.07,1317.73C1639.99,1331.44 1639.99,1451.79 1632.07,1465.51C1624.15,1479.23 1519.93,1539.4 1504.09,1539.4C1488.25,1539.4 1384.02,1479.23 1376.1,1465.51C1368.18,1451.79 1368.18,1331.44 1376.1,1317.73C1384.02,1304.01 1488.25,1243.84 1504.09,1243.84ZM1504.09,1248.61C1506.13,1248.61 1509.83,1249.94 1514.75,1251.96C1527.98,1257.38 1548.56,1268.17 1568.66,1279.78C1588.77,1291.38 1608.4,1303.81 1619.71,1312.56C1623.91,1315.81 1626.91,1318.35 1627.93,1320.12C1628.95,1321.88 1629.65,1325.75 1630.37,1331.02C1632.29,1345.19 1633.23,1368.4 1633.23,1391.62C1633.23,1414.84 1632.29,1438.05 1630.37,1452.22C1629.65,1457.49 1628.95,1461.36 1627.93,1463.12C1626.91,1464.89 1623.91,1467.43 1619.71,1470.68C1608.4,1479.43 1588.77,1491.86 1568.66,1503.46C1548.56,1515.07 1527.98,1525.86 1514.75,1531.28C1509.83,1533.3 1506.13,1534.63 1504.09,1534.63C1502.05,1534.63 1498.35,1533.3 1493.43,1531.28C1480.2,1525.86 1459.62,1515.07 1439.51,1503.46C1419.41,1491.86 1399.78,1479.43 1388.47,1470.68C1384.26,1467.43 1381.26,1464.89 1380.24,1463.12C1379.22,1461.36 1378.52,1457.49 1377.81,1452.22C1375.89,1438.05 1374.94,1414.84 1374.94,1391.62C1374.94,1368.4 1375.89,1345.19 1377.81,1331.02C1378.52,1325.75 1379.22,1321.88 1380.24,1320.12C1381.26,1318.35 1384.26,1315.81 1388.47,1312.56C1399.78,1303.81 1419.41,1291.38 1439.51,1279.78C1459.62,1268.17 1480.2,1257.38 1493.43,1251.96C1498.35,1249.94 1502.05,1248.61 1504.09,1248.61Z"/>
            </g>
            <g transform="matrix(1.81302,0,0,1.48828,575.184,-583.06)">
                <path d="M1514.11,1190.9C1514.11,1190.9 1458.17,1265.69 1458.17,1340.47C1458.17,1381.43 1483.24,1414.68 1514.11,1414.68C1544.99,1414.68 1570.06,1381.43 1570.06,1340.47C1570.06,1265.69 1514.11,1190.9 1514.11,1190.9Z" style="fill:rgb(117,169,40);"/>
                <path d="M1514.11,1190.9C1514.11,1190.9 1458.17,1265.69 1458.17,1340.47C1458.17,1381.43 1483.24,1414.68 1514.11,1414.68C1544.99,1414.68 1570.06,1381.43 1570.06,1340.47C1570.06,1265.69 1514.11,1190.9 1514.11,1190.9ZM1514.11,1199.04C1525.55,1215.51 1565.84,1277.94 1565.84,1340.47C1565.84,1378.34 1542.66,1409.08 1514.11,1409.08C1485.57,1409.08 1462.39,1378.34 1462.39,1340.47C1462.39,1277.94 1502.67,1215.51 1514.11,1199.04L1514.11,1199.04Z"/>
            </g>
            <g transform="matrix(0.883832,-0.921316,0.846149,0.962347,1131.2,1673.24)">
                <path d="M1364.95,1171.65C1307.94,1171.65 1261.66,1217.93 1261.66,1274.94C1261.66,1331.96 1307.94,1378.24 1364.95,1378.24C1347.85,1354.14 1333.97,1316.15 1333.97,1274.94C1333.97,1233.74 1347.85,1195.75 1364.95,1171.65Z" style="fill:white;"/>
                <path d="M1364.95,1171.65C1307.94,1171.65 1261.66,1217.93 1261.66,1274.94C1261.66,1331.96 1307.94,1378.24 1364.95,1378.24C1347.85,1354.14 1333.97,1316.15 1333.97,1274.94C1333.97,1233.74 1347.85,1195.75 1364.95,1171.65ZM1353.04,1178.63C1338.59,1203.41 1327.71,1237.92 1327.71,1274.94C1327.71,1311.97 1338.59,1346.48 1353.04,1371.26C1305.1,1365.38 1267.91,1324.47 1267.91,1274.94C1267.91,1225.42 1305.1,1184.51 1353.04,1178.63L1353.04,1178.63Z"/>
            </g>
            <g transform="matrix(-0.883832,-0.921316,-0.846149,0.962347,5509.4,1673.24)">
                <path d="M1364.95,1171.65C1307.94,1171.65 1261.66,1217.93 1261.66,1274.94C1261.66,1331.96 1307.94,1378.24 1364.95,1378.24C1347.85,1354.14 1333.97,1316.15 1333.97,1274.94C1333.97,1233.74 1347.85,1195.75 1364.95,1171.65Z" style="fill:white;"/>
                <path d="M1364.95,1171.65C1307.94,1171.65 1261.66,1217.93 1261.66,1274.94C1261.66,1331.96 1307.94,1378.24 1364.95,1378.24C1347.85,1354.14 1333.97,1316.15 1333.97,1274.94C1333.97,1233.74 1347.85,1195.75 1364.95,1171.65ZM1353.04,1178.63C1305.1,1184.51 1267.91,1225.42 1267.91,1274.94C1267.91,1324.47 1305.1,1365.38 1353.04,1371.26C1338.59,1346.48 1327.71,1311.97 1327.71,1274.94C1327.71,1237.92 1338.59,1203.41 1353.04,1178.63L1353.04,1178.63Z"/>
            </g>
            <g transform="matrix(1.36685,0,0,1.48828,1227.43,-588.432)">
                <circle cx="1531.16" cy="1306.4" r="28.875" style="fill:white;"/>
                <path d="M1531.16,1277.52C1547.09,1277.52 1560.03,1290.46 1560.03,1306.4C1560.03,1322.34 1547.09,1335.27 1531.16,1335.27C1515.22,1335.27 1502.28,1322.34 1502.28,1306.4C1502.28,1290.46 1515.22,1277.52 1531.16,1277.52ZM1531.16,1283.12C1544,1283.12 1554.43,1293.55 1554.43,1306.4C1554.43,1319.25 1544,1329.67 1531.16,1329.67C1518.31,1329.67 1507.88,1319.25 1507.88,1306.4C1507.88,1293.55 1518.31,1283.12 1531.16,1283.12Z"/>
            </g>
            <g transform="matrix(1.60239,0,0,1.74474,910.166,-905.635)">
                <path d="M1504.09,1243.84C1519.93,1243.84 1624.15,1304.01 1632.07,1317.73C1639.99,1331.44 1639.99,1451.79 1632.07,1465.51C1624.15,1479.23 1519.93,1539.4 1504.09,1539.4C1488.25,1539.4 1384.02,1479.23 1376.1,1465.51C1368.18,1451.79 1368.18,1331.44 1376.1,1317.73C1384.02,1304.01 1488.25,1243.84 1504.09,1243.84ZM1504.09,1248.61C1506.13,1248.61 1509.83,1249.94 1514.75,1251.96C1527.98,1257.38 1548.56,1268.17 1568.66,1279.78C1588.77,1291.38 1608.4,1303.81 1619.71,1312.56C1623.91,1315.81 1626.91,1318.35 1627.93,1320.12C1628.95,1321.88 1629.65,1325.75 1630.37,1331.02C1632.29,1345.19 1633.23,1368.4 1633.23,1391.62C1633.23,1414.84 1632.29,1438.05 1630.37,1452.22C1629.65,1457.49 1628.95,1461.36 1627.93,1463.12C1626.91,1464.89 1623.91,1467.43 1619.71,1470.68C1608.4,1479.43 1588.77,1491.86 1568.66,1503.46C1548.56,1515.07 1527.98,1525.86 1514.75,1531.28C1509.83,1533.3 1506.13,1534.63 1504.09,1534.63C1502.05,1534.63 1498.35,1533.3 1493.43,1531.28C1480.2,1525.86 1459.62,1515.07 1439.51,1503.46C1419.41,1491.86 1399.78,1479.43 1388.47,1470.68C1384.26,1467.43 1381.26,1464.89 1380.24,1463.12C1379.22,1461.36 1378.52,1457.49 1377.81,1452.22C1375.89,1438.05 1374.94,1414.84 1374.94,1391.62C1374.94,1368.4 1375.89,1345.19 1377.81,1331.02C1378.52,1325.75 1379.22,1321.88 1380.24,1320.12C1381.26,1318.35 1384.26,1315.81 1388.47,1312.56C1399.78,1303.81 1419.41,1291.38 1439.51,1279.78C1459.62,1268.17 1480.2,1257.38 1493.43,1251.96C1498.35,1249.94 1502.05,1248.61 1504.09,1248.61Z"/>
            </g>
            <g transform="matrix(1.81302,0,0,1.48828,574.91,-583.06)">
                <path d="M1514.11,1190.9C1514.11,1190.9 1458.17,1265.69 1458.17,1340.47C1458.17,1381.43 1483.24,1414.68 1514.11,1414.68C1544.99,1414.68 1570.06,1381.43 1570.06,1340.47C1570.06,1265.69 1514.11,1190.9 1514.11,1190.9ZM1514.11,1199.04C1525.55,1215.51 1565.84,1277.94 1565.84,1340.47C1565.84,1378.34 1542.66,1409.08 1514.11,1409.08C1485.57,1409.08 1462.39,1378.34 1462.39,1340.47C1462.39,1277.94 1502.67,1215.51 1514.11,1199.04L1514.11,1199.04Z"/>
            </g>
            <g transform="matrix(7.49221e-17,1.33227,-1.22357,8.15778e-17,4880.01,-253.395)">
                <path d="M1364.95,1171.65C1307.94,1171.65 1261.66,1217.93 1261.66,1274.94C1261.66,1331.96 1307.94,1378.24 1364.95,1378.24C1347.85,1354.14 1333.97,1316.15 1333.97,1274.94C1333.97,1233.74 1347.85,1195.75 1364.95,1171.65Z" style="fill:rgb(117,169,40);"/>
                <path d="M1364.95,1171.65C1307.94,1171.65 1261.66,1217.93 1261.66,1274.94C1261.66,1331.96 1307.94,1378.24 1364.95,1378.24C1347.85,1354.14 1333.97,1316.15 1333.97,1274.94C1333.97,1233.74 1347.85,1195.75 1364.95,1171.65ZM1353.04,1178.63C1338.59,1203.41 1327.71,1237.92 1327.71,1274.94C1327.71,1311.97 1338.59,1346.48 1353.04,1371.26C1305.1,1365.38 1267.91,1324.47 1267.91,1274.94C1267.91,1225.42 1305.1,1184.51 1353.04,1178.63L1353.04,1178.63Z"/>
            </g>
            <g transform="matrix(0.883832,-0.921316,0.846149,0.962347,1130.92,1673.24)">
                <path d="M1364.95,1171.65C1307.94,1171.65 1261.66,1217.93 1261.66,1274.94C1261.66,1331.96 1307.94,1378.24 1364.95,1378.24C1347.85,1354.14 1333.97,1316.15 1333.97,1274.94C1333.97,1233.74 1347.85,1195.75 1364.95,1171.65ZM1353.04,1178.63C1338.59,1203.41 1327.71,1237.92 1327.71,1274.94C1327.71,1311.97 1338.59,1346.48 1353.04,1371.26C1305.1,1365.38 1267.91,1324.47 1267.91,1274.94C1267.91,1225.42 1305.1,1184.51 1353.04,1178.63L1353.04,1178.63Z"/>
            </g>
            <g transform="matrix(-0.883832,-0.921316,-0.846149,0.962347,5509.12,1673.24)">
                <path d="M1364.95,1171.65C1307.94,1171.65 1261.66,1217.93 1261.66,1274.94C1261.66,1331.96 1307.94,1378.24 1364.95,1378.24C1347.85,1354.14 1333.97,1316.15 1333.97,1274.94C1333.97,1233.74 1347.85,1195.75 1364.95,1171.65ZM1353.04,1178.63C1305.1,1184.51 1267.91,1225.42 1267.91,1274.94C1267.91,1324.47 1305.1,1365.38 1353.04,1371.26C1338.59,1346.48 1327.71,1311.97 1327.71,1274.94C1327.71,1237.92 1338.59,1203.41 1353.04,1178.63L1353.04,1178.63Z"/>
            </g>
            <g transform="matrix(1.36685,0,0,1.48828,1227.16,-588.432)">
                <path d="M1531.16,1277.52C1547.09,1277.52 1560.03,1290.46 1560.03,1306.4C1560.03,1322.34 1547.09,1335.27 1531.16,1335.27C1515.22,1335.27 1502.28,1322.34 1502.28,1306.4C1502.28,1290.46 1515.22,1277.52 1531.16,1277.52ZM1531.16,1283.12C1544,1283.12 1554.43,1293.55 1554.43,1306.4C1554.43,1319.25 1544,1329.67 1531.16,1329.67C1518.31,1329.67 1507.88,1319.25 1507.88,1306.4C1507.88,1293.55 1518.31,1283.12 1531.16,1283.12Z"/>
            </g>
            <g transform="matrix(1.81302,0,0,1.48828,574.91,-583.06)">
                <path d="M1514.11,1190.9C1514.11,1190.9 1458.17,1265.69 1458.17,1340.47C1458.17,1381.43 1483.24,1414.68 1514.11,1414.68C1544.99,1414.68 1570.06,1381.43 1570.06,1340.47C1570.06,1265.69 1514.11,1190.9 1514.11,1190.9ZM1514.11,1199.04C1525.55,1215.51 1565.84,1277.94 1565.84,1340.47C1565.84,1378.34 1542.66,1409.08 1514.11,1409.08C1485.57,1409.08 1462.39,1378.34 1462.39,1340.47C1462.39,1277.94 1502.67,1215.51 1514.11,1199.04L1514.11,1199.04Z"/>
            </g>
            <g transform="matrix(362.345,0,0,394.534,3571.8,1650.99)">
                <path d="M0.075,-0L0.075,-0.652L0.306,-0.652C0.341,-0.652 0.375,-0.649 0.406,-0.642C0.437,-0.634 0.464,-0.623 0.487,-0.607C0.509,-0.59 0.528,-0.569 0.541,-0.542C0.554,-0.515 0.561,-0.481 0.561,-0.442C0.561,-0.404 0.554,-0.371 0.541,-0.343C0.527,-0.315 0.508,-0.292 0.485,-0.274C0.462,-0.256 0.435,-0.243 0.404,-0.234C0.373,-0.225 0.341,-0.221 0.306,-0.221L0.222,-0.221L0.222,-0L0.075,-0ZM0.222,-0.338L0.297,-0.338C0.377,-0.338 0.417,-0.373 0.417,-0.442C0.417,-0.476 0.407,-0.5 0.387,-0.514C0.366,-0.528 0.336,-0.535 0.297,-0.535L0.222,-0.535L0.222,-0.338Z" style="fill-rule:nonzero;"/>
            </g>
            <g transform="matrix(362.345,0,0,394.534,3789.2,1650.99)">
                <path d="M0.074,-0L0.074,-0.124L0.226,-0.124L0.226,-0.528L0.074,-0.528L0.074,-0.652L0.526,-0.652L0.526,-0.528L0.374,-0.528L0.374,-0.124L0.526,-0.124L0.526,-0L0.074,-0Z" style="fill-rule:nonzero;"/>
            </g>
            <g transform="matrix(362.345,0,0,394.534,4441.43,1650.99)">
                <path d="M0.058,-0L0.058,-0.652L0.212,-0.652L0.276,-0.421L0.298,-0.331L0.302,-0.331L0.324,-0.421L0.388,-0.652L0.542,-0.652L0.542,-0L0.418,-0L0.418,-0.202C0.418,-0.22 0.419,-0.243 0.42,-0.27C0.421,-0.297 0.423,-0.325 0.425,-0.354C0.427,-0.383 0.429,-0.41 0.432,-0.438C0.434,-0.465 0.436,-0.487 0.437,-0.504L0.434,-0.504L0.384,-0.33L0.334,-0.173L0.262,-0.173L0.211,-0.33L0.164,-0.504L0.161,-0.504C0.163,-0.487 0.165,-0.465 0.167,-0.438C0.169,-0.41 0.171,-0.383 0.173,-0.354C0.175,-0.325 0.177,-0.297 0.178,-0.27C0.179,-0.243 0.18,-0.22 0.18,-0.202L0.18,-0L0.058,-0Z" style="fill-rule:nonzero;"/>
            </g>
            <g transform="matrix(362.345,0,0,394.534,4658.83,1650.99)">
                <path d="M0.302,0.012C0.222,0.012 0.162,-0.011 0.123,-0.056C0.084,-0.101 0.064,-0.166 0.064,-0.251L0.064,-0.652L0.211,-0.652L0.211,-0.236C0.211,-0.197 0.218,-0.167 0.233,-0.146C0.248,-0.125 0.271,-0.115 0.302,-0.115C0.333,-0.115 0.357,-0.125 0.372,-0.146C0.387,-0.167 0.394,-0.197 0.394,-0.236L0.394,-0.652L0.536,-0.652L0.536,-0.251C0.536,-0.166 0.517,-0.101 0.478,-0.056C0.44,-0.011 0.381,0.012 0.302,0.012Z" style="fill-rule:nonzero;"/>
            </g>
            <g transform="matrix(3.81318,0,0,3.71117,-843.179,-6123.35)">
                <rect x="1310.52" y="2053.79" width="64.139" height="12.813"/>
            </g>
            <g transform="matrix(0.918413,0,0,1,856.233,-2883.65)">
                <path d="M3644.64,4462.45L3644.47,4463.03C3639.47,4479.73 3632.44,4493.74 3623.37,4505.05C3614.29,4516.36 3603.38,4524.9 3590.62,4530.69C3577.86,4536.48 3563.86,4539.37 3548.6,4539.37C3533.35,4539.37 3519.34,4536.48 3506.58,4530.69C3493.83,4524.9 3482.91,4516.36 3473.84,4505.05C3464.76,4493.74 3457.73,4479.73 3452.73,4463.03C3447.73,4446.33 3445.23,4426.93 3445.23,4404.83C3445.23,4383.27 3447.73,4364.26 3452.73,4347.82C3457.73,4331.39 3464.76,4317.58 3473.84,4306.4C3482.91,4295.22 3493.83,4286.8 3506.58,4281.15C3519.34,4275.49 3533.35,4272.66 3548.6,4272.66C3563.86,4272.66 3577.86,4275.49 3590.62,4281.15C3603.38,4286.8 3614.29,4295.22 3623.37,4306.4C3632.44,4317.58 3639.47,4331.39 3644.47,4347.82C3644.65,4348.41 3644.82,4348.99 3644.99,4349.58L3583.5,4349.58C3582.59,4347.5 3581.61,4345.53 3580.56,4343.68C3572.67,4329.74 3562.01,4322.77 3548.6,4322.77C3535.19,4322.77 3524.53,4329.74 3516.64,4343.68C3508.75,4357.62 3504.81,4378.01 3504.81,4404.83C3504.81,4432.72 3508.75,4453.76 3516.64,4467.96C3524.53,4482.16 3535.19,4489.26 3548.6,4489.26C3562.01,4489.26 3572.67,4482.16 3580.56,4467.96C3581.52,4466.23 3582.43,4464.39 3583.27,4462.45L3644.64,4462.45Z" style="fill-rule:nonzero;"/>
            </g>
            <g transform="matrix(2.49702,0,0,3.71117,984.967,-6018.51)">
                <rect x="1310.52" y="2053.79" width="64.139" height="12.813"/>
            </g>
            <g transform="matrix(2.49702,0,0,3.71117,984.967,-6228.19)">
                <rect x="1310.52" y="2053.79" width="64.139" height="12.813"/>
            </g>
        </g>
    </g>
</svg>
